<svg xmlns="http://www.w3.org/2000/svg" viewBox="0 0 390 260" role="img" aria-label="Torneira e reparo no sifão da pia"><rect width="390" height="260" fill="#eef1e8"/><circle cx="312" cy="39" r="90" fill="#e5eade"/><circle cx="39" cy="256" r="78" fill="#e8edde"/><g fill="none" stroke="#333d33" stroke-width="3" stroke-linecap="round" stroke-linejoin="round"><path d="M78 139h232l-15 35H96z" fill="white"/><path d="M182 137V91q0-32 29-32h18v25h-14q-9 0-9 11v42" fill="#ced3ca"/><path d="M226 81v18"/><path d="M226 112q-12 17 0 17t0-17" fill="#ffc531" stroke="#c39522"/><path d="M194 176v25q0 17 19 17h25q15 0 15-17v-14" stroke-width="13" stroke="#8e9a8c"/><path d="M99 177v60m195-60v60"/><path d="M114 62l10-12 16 9-5 17 29 29-12 12-29-29-17 5-9-16 12-10" fill="#ffc531"/></g></svg>